# xmcd
#
# Track frame offsets:
#	187
#	18312
#	32452
#	54082
#	63465
#	78762
#	110415
#	135960
#	147665
#	161255
#
# Disc length: 2350
#
# Revision: 2
# Processed by: cddbd v1.5.1PL0 Copyright (c) Steve Scherf et al.
# Submitted via: ExactAudioCopy v0.90b4
# Normalized: r1:DSETVAR1
#
DISCID=71092c0a
DTITLE=Various Artist - Serial MOM
DYEAR=1994
DGENRE=Soundtrack
TTITLE0=L7 - Gas Chamber
TTITLE1=Barry Manilow - Daybreak
TTITLE2=Basil Poledouris - Main title (Mom's suburban dream)
TTITLE3=Basil Poledouris - Morning suite (I'll get you pussyface!)
TTITLE4=Basil Poledouris - Its been a crazy day -hasn't it?
TTITLE5=Basil Poledouris - Flea market suite (stood up and skewered)
TTITLE6=Basil Poledouris - The sterner payback
TTITLE7=Basil Poledouris - Buckle up, scotty!
TTITLE8=Basil Poledouris - Courtroom suite (in memory of a fashion victim)
TTITLE9=Basil Poledouris - I'm coming home!
EXTD=Music score by Basil Poledouris
EXTT0=
EXTT1=
EXTT2=
EXTT3=
EXTT4=
EXTT5=
EXTT6=
EXTT7=
EXTT8=
EXTT9=
PLAYORDER=
